<svg preserveAspectRatio="xMidYMid meet" xmlns="http://www.w3.org/2000/svg" viewBox="0 0 664 455" version="1.1">
  <title>Monograma AL — Alberto López</title>
  <desc>Logotipo vectorial sólido. Color carbón #2B2D2F. Para uso sobre fondos claros.</desc>
	<path d="M 205.070 6.250 C 203.505 9.688, 200.877 15.425, 199.230 19 C 192.278 34.089, 168.148 86.794, 161 102.500 C 156.745 111.850, 145.529 136.375, 136.075 157 C 126.621 177.625, 115.796 201.250, 112.018 209.500 C 108.240 217.750, 101.002 233.499, 95.933 244.497 C 90.865 255.495, 85.888 266.427, 84.875 268.791 C 83.862 271.154, 79.025 281.731, 74.127 292.294 C 69.228 302.857, 60.039 322.750, 53.707 336.500 C 47.374 350.250, 40.840 364.425, 39.185 368 C 37.531 371.575, 34.160 379, 31.695 384.500 C 29.229 390, 21.090 407.964, 13.606 424.421 C 6.123 440.878, 0 454.378, 0 454.421 C 0 454.464, 14.874 454.613, 33.052 454.750 L 66.104 455 67.149 452.003 C 68.824 447.199, 83.846 416.974, 87.280 411.500 C 97.177 395.723, 111.684 380.115, 125.887 369.962 C 136.551 362.340, 153.011 354.021, 166.030 349.673 C 171.822 347.739, 181.497 345.175, 187.530 343.975 C 196.674 342.156, 203.924 341.656, 231.077 340.972 C 265.139 340.114, 274.266 339.151, 293.447 334.390 C 331.927 324.838, 362.727 306.638, 392.515 275.851 C 421.795 245.590, 438.808 211.561, 447.686 165.500 C 449.208 157.604, 449.487 146.902, 449.960 78.250 L 450.500 -0.001 420.381 -0 L 390.262 0 390.622 63.750 C 390.841 102.646, 390.570 132.958, 389.926 141.500 C 389.345 149.200, 387.739 160.900, 386.356 167.500 C 383.503 181.112, 376.998 198.684, 370.878 209.306 C 360.932 226.569, 345.759 243.241, 329.431 254.849 C 312.197 267.100, 287.634 277.171, 266.982 280.455 C 261.301 281.358, 245.132 282.457, 230.169 282.958 C 207.803 283.707, 201.409 284.272, 190.640 286.452 C 178.293 288.952, 159.051 295.485, 148.500 300.759 C 145.750 302.134, 140.463 305.216, 136.750 307.609 C 133.037 310.002, 130 311.650, 130 311.271 C 130 310.892, 133.111 303.814, 136.913 295.541 C 140.715 287.269, 148.190 270.825, 153.525 259 C 158.859 247.175, 166.323 230.839, 170.112 222.697 C 173.900 214.555, 177 207.721, 177 207.510 C 177 207.299, 185.042 189.435, 194.872 167.813 C 213.216 127.460, 222.430 107.022, 230.177 89.500 C 232.609 84, 235.027 79.558, 235.549 79.629 C 236.072 79.700, 241.900 91.652, 248.500 106.189 C 255.100 120.726, 262.166 136.221, 264.203 140.622 C 267.880 148.570, 269.969 153.160, 288.270 193.500 C 302.759 225.436, 309.783 240, 310.698 240 C 311.154 240, 313.996 238.355, 317.013 236.343 C 324.855 231.118, 340.507 214.990, 347.710 204.714 L 353.869 195.928 348.820 185.214 C 346.043 179.321, 341.621 169.775, 338.994 164 C 336.366 158.225, 329.399 143.150, 323.511 130.500 C 311.838 105.424, 293.501 65.625, 285.961 49 C 267.664 8.658, 264 0.529, 264 0.280 C 264 0.126, 251.381 0, 235.958 0 L 207.916 0 205.070 6.250 M 393.958 304.597 C 387.213 311.552, 369.950 325.053, 360.980 330.389 C 356.591 333, 353 335.565, 353 336.089 C 353 337.215, 370.980 376.960, 378.238 391.880 C 381.016 397.588, 385.877 405.688, 389.041 409.880 C 395.946 419.026, 406.079 428.899, 415.171 435.338 C 423.992 441.586, 438.271 448.168, 450.550 451.648 L 460.500 454.468 536 454.484 C 597.164 454.497, 612.544 454.236, 617 453.111 C 625.853 450.875, 637.783 444.349, 644.192 438.235 C 647.398 435.178, 651.632 430.249, 653.600 427.283 C 657.653 421.178, 662.458 408.799, 663.517 401.736 L 664.227 397 570.864 396.985 C 468.318 396.969, 471.081 397.119, 458.405 390.878 C 450.640 387.056, 442.311 379.695, 436.440 371.469 C 432.593 366.077, 417.965 337.264, 408.533 316.500 C 402.998 304.315, 400.648 300, 399.546 300 C 398.925 300, 396.410 302.069, 393.958 304.597" stroke="none" fill="#2B2D2F" fill-rule="evenodd"/>
</svg>